inDegrees=yes
name=ik_tiny_file
DataType=double
version=3
OpenSimVersion=4.4-2022-07-23-0e9fedc
endheader
time	pelvis_tilt	pelvis_list	pelvis_rotation	pelvis_tx	pelvis_ty	pelvis_tz	hip_flexion_r	hip_adduction_r	hip_rotation_r	knee_angle_r	knee_angle_r_beta	ankle_angle_r	subtalar_angle_r	mtp_angle_r	hip_flexion_l	hip_adduction_l	hip_rotation_l	knee_angle_l	knee_angle_l_beta	ankle_angle_l	subtalar_angle_l	mtp_angle_l	lumbar_extension	lumbar_bending	lumbar_rotation	arm_flex_r	arm_add_r	arm_rot_r	elbow_flex_r	pro_sup_r	wrist_flex_r	wrist_dev_r	arm_flex_l	arm_add_l	arm_rot_l	elbow_flex_l	pro_sup_l	wrist_flex_l	wrist_dev_l
3.28	9.107501893020817	-4.092513259833243	0.5697849153821051	0	0.9399999999999999	0	42.10379358063663	-10.16410065029205	0	61.17381833573311	1.067684545975421	-4.901581916020817	0	0	42.10379358063663	-10.16410065029205	0	61.17381833573311	1.067684545975421	-4.901581916020817	0	0	-9.063250129583931	3.632989863417195	0.8078415646719903	3.585449631868193	-14.32489646327968	-18.52141536248233	54.11546138042731	44.99797347815419	0	5.012815946384951	2.809802608225784	0.6983831789636596	-0.4286732258265838	0.08850295573104397	44.99797347815419	0	5.012815946384951
3.3	9.124854009955888	-4.110319418179797	0.611814343721885	0	0.9399999999999999	0	42.12120844118856	-10.16161762140796	0	61.1670051847662	1.067565634058613	-4.902337899567732	0	0	42.12120844118856	-10.16161762140796	0	61.1670051847662	1.067565634058613	-4.902337899567732	0	0	-9.02851260947479	3.65807871939767	0.863701461332824	3.808909127728221	-14.82047603342986	-18.80325031860295	57.68024216888514	44.99799935338739	0	5.01252351690077	2.714598875585881	0.6946067057570406	-0.3988032289890112	0.0893206981664342	44.99799935338739	0	5.01252351690077
3.32	9.210092885551864	-4.143222112359865	0.6472995469011819	0	0.9399999999999999	0	42.13641275128918	-10.15947745303233	0	61.16104030594	1.067461527283613	-4.902996239190858	0	0	42.13641275128918	-10.15947745303233	0	61.16104030594	1.067461527283613	-4.902996239190858	0	0	-9.135102143436175	3.699509640930422	0.8737699546147272	4.224935748907979	-15.49436430907141	-18.72860819879426	60.90422521569867	44.99802172533929	0	5.012273862859786	2.736947203603812	0.701734804212243	-0.5629016407273105	0.08886240458962676	44.99802172533929	0	5.012273862859786
3.34	9.300528255646233	-4.187495404197106	0.6914097899821892	0	0.9399999999999999	0	42.13807415835659	-10.1591542960608	0	61.16051284210371	1.067452321302985	-4.903074171584985	0	0	42.13807415835659	-10.1591542960608	0	61.16051284210371	1.067452321302985	-4.903074171584985	0	0	-9.236501422660712	3.769575198732463	0.9158172602869127	4.63201124438785	-16.12332025716106	-18.57874036835182	64.14954205395587	44.998024896257	0	5.012229767766899	2.732701469405629	0.7336854916650553	-0.621683279818905	0.08756408886126929	44.998024896257	0	5.012229767766899
3.36	9.405588431627159	-4.240606599484488	0.7491898840969115	0	0.9399999999999999	0	42.13945747691358	-10.15888577337045	0	61.16007336044233	1.067444650900991	-4.903139033890989	0	0	42.13945747691358	-10.15888577337045	0	61.16007336044233	1.067444650900991	-4.903139033890989	0	0	-9.376564052414841	3.870800231199757	0.9364584206210453	5.209467387486996	-16.90279398158068	-18.49290549622654	67.17972783166319	44.99802753242984	0	5.012193190209289	2.762285034088814	0.7676214274049382	-0.6566031570966562	0.08662544799985815	44.99802753242984	0	5.012193190209289
3.38	9.482638268997654	-4.287982720156847	0.8066091052645062	0	0.9399999999999999	0	42.14091316229889	-10.15860341268095	0	61.15961101253635	1.067436581407742	-4.903207285373096	0	0	42.14091316229889	-10.15860341268095	0	61.15961101253635	1.067436581407742	-4.903207285373096	0	0	-9.476290235991057	3.953244882331611	0.9534107146776868	5.926564895300306	-17.88061536942629	-18.47856841958871	69.74115742326313	44.99803030520874	0	5.012154770911986	2.737668626883455	0.8024699769181871	-0.6469474515423627	0.08568461528070946	44.99803030520874	0	5.012154770911986
3.4	9.576820144846355	-4.340272645546408	0.8594814415490616	0	0.9399999999999999	0	42.14227948629296	-10.15833883181606	0	61.15917684024927	1.067429003671812	-4.903271327035561	0	0	42.14227948629296	-10.15833883181606	0	61.15917684024927	1.067429003671812	-4.903271327035561	0	0	-9.571695421369904	4.011310356567387	0.9664545149055662	6.551838057380762	-18.64929651424597	-18.37443978330146	72.32866112986194	44.99803290453691	0	5.012118825472594	2.681323577044102	0.8188560786099413	-0.6444355246752872	0.0845920086475752	44.99803290453691	0	5.012118825472594
3.42	9.688681140718794	-4.3984737297883	0.9094936333448587	0	0.9399999999999999	0	42.14365093817103	-10.15807352764463	0	61.15874104856609	1.067421397672087	-4.903335600208816	0	0	42.14365093817103	-10.15807352764463	0	61.15874104856609	1.067421397672087	-4.903335600208816	0	0	-9.675406214541294	4.069784493681412	0.9785424955773502	7.250428191908072	-19.49534008039992	-18.2991642381707	74.55658857918912	44.99803551179583	0	5.012082825403423	2.621017204099809	0.7992992593604278	-0.6474777153341557	0.08542640730634102	44.99803551179583	0	5.012082825403423
